<svg id="Layer_1" data-name="Layer 1" xmlns="http://www.w3.org/2000/svg" viewBox="0 0 945 230.99"><defs><style>.cls-1{fill:#fff;}</style></defs><title>CLI logo white</title><path class="cls-1" d="M274.88,423.24c-40.49-8.13-94.69-3.37-126.8,29.64-13.63,14-24.07,29.16-27,50.57-1,7.43-6.13-.82-6.13-14.74,0-5.59,4.72-18.91,7.71-25.92C134.29,435.67,179.65,400.38,274.88,423.24Z" transform="translate(-115 -380.72)"/><path class="cls-1" d="M269.65,585.84c10.78-1.88,12.88-11.46,8.15-14.4-2.28-1.42-4.73-1-6.9-.79-88.31,9.08-137.24-25.76-148.34-59.48-1.21-3.68-5.56-17.85-7.35-25.35C113,549.26,182,601.16,269.65,585.84Z" transform="translate(-115 -380.72)"/><path class="cls-1" d="M255.49,403c-29.43-6.12-125.77,7.68-136.06,55.92a56.61,56.61,0,0,0-2.38,14.65c.24-3.49.42-6.2.61-8.51.5-4.54,1.15-9.68,2-14.19.22-1.1.47-2.3.74-3.62v0l1.12-4.53,0-.11v0c.14-.53.29-1.05.45-1.58,1.8-6,5-11.79,8.52-17.74C135.59,414.74,172.7,385.18,255.49,403Z" transform="translate(-115 -380.72)"/><path class="cls-1" d="M120.3,446c-1,5.65-1.67,9.24-2.11,12.41-.23,1.72-.42,3.43-.58,5.07-.22,2.48-.86,5.27-.55,9.08,6.42,80.93,139,98.26,215.25,67.66,11.57-4.64,9.84-19.73,3.16-20.92-1.92-.34-3.69.5-5.16,1-100.86,37.26-214.26,7.36-210.69-62.18.29-5.59.35-11.21,1.77-16.76Z" transform="translate(-115 -380.72)"/><path class="cls-1" d="M132.21,414.84c2.58-4,6.3-9.18,9.11-13,2-2.45,3.69-4.5,5.61-6.5,22.35-23.33,60.6-13.08,78.68-7.25C202.79,385.17,160.69,377.78,132.21,414.84Z" transform="translate(-115 -380.72)"/><path class="cls-1" d="M139.66,403.9c-2.42,3.42-5.49,7.87-7.91,11.64-1,1.62-2,3.33-2.91,5-14.21,27.76-3.84,59.28,30.94,80.77,48.89,30.21,127.5,29.14,175.58-2.39A93.39,93.39,0,0,0,357.68,479c5.51-9.08-2.26-20.32-6.62-20.13a6,6,0,0,0-3.31,1.6,85.13,85.13,0,0,1-20.36,18.2c-43.87,28.77-115.6,29.75-160.2,2.18-36.8-22.73-43.64-57.79-20.28-85.51l-.24.25C144.17,398.38,141.61,401.32,139.66,403.9Z" transform="translate(-115 -380.72)"/><polygon class="cls-1" points="575.21 147.64 644.05 147.64 644.05 133.46 591.17 133.46 591.17 105.4 636.15 105.4 636.15 91.86 591.17 91.86 591.17 65.09 644.05 65.09 644.05 50.91 575.21 50.91 575.21 147.64"/><path class="cls-1" d="M453.11,438.24a37.78,37.78,0,0,1,26.6,11l5.16-7.09S474.55,429.54,453,429.54c-28.38,0-48.05,21.92-48.05,50.62,0,28.38,19.67,50.46,48.05,50.46,21.6,0,31.92-12.73,31.92-12.73L479.71,511a37.76,37.76,0,0,1-26.6,11c-22.89,0-38.69-19-38.69-41.76C414.42,457.27,430.22,438.24,453.11,438.24Z" transform="translate(-115 -380.72)"/><polygon class="cls-1" points="513.51 129.26 482.71 50.91 465.78 50.91 505.44 147.64 521.57 147.64 561.23 50.91 544.46 50.91 513.51 129.26"/><polygon class="cls-1" points="422.34 96.37 419.44 102.18 418.96 102.18 416.21 96.37 389.29 50.91 378.49 50.91 414.44 110.4 414.44 147.64 423.63 147.64 423.63 110.4 459.58 50.91 448.94 50.91 422.34 96.37"/><polygon class="cls-1" points="916.37 65.09 916.37 50.91 847.53 50.91 847.53 147.64 916.37 147.64 916.37 133.46 863.49 133.46 863.49 105.4 908.47 105.4 908.47 91.86 863.49 91.86 863.49 65.09 916.37 65.09"/><path class="cls-1" d="M835.42,493.86c12.41-4.67,20.47-14.83,20.47-29.82,0-20.16-14.34-32.41-37.08-32.41H779v96.74h16V496.44H818l23,31.93h17.58v-2.26l-23.22-31.44ZM819,482.26H795V445.82H818c12.9,0,21.28,6,21.28,18.38C839.29,476.45,830.74,482.26,819,482.26Z" transform="translate(-115 -380.72)"/><path class="cls-1" d="M910.82,471.13c-16.28-4.84-21.44-8.06-21.44-14.67,0-7.74,6.94-12.09,17.9-12.09,15.8,0,25,8.06,25,8.06l8.7-13.06s-9.67-9.83-33.69-9.83c-22.9,0-35.47,11-35.47,27.57,0,15.15,10.48,22.41,32.08,28.85,17.42,5.32,21.93,9,21.93,16.45,0,7.9-5.64,13.38-18.7,13.38a46.62,46.62,0,0,1-27.41-9.35L871,518.53s11.77,12.09,36.6,12.09c24.18,0,35.95-12.9,35.95-29.34C943.55,486.29,934.2,477.74,910.82,471.13Z" transform="translate(-115 -380.72)"/><path class="cls-1" d="M1051.92,440a3.11,3.11,0,0,0,2.11-3.07c0-2.08-1.48-3.34-3.82-3.34h-4.1v10h1.65v-3.29h2.37l2.37,3.29h1.81v-.24l-2.39-3.23Zm-1.69-1.2h-2.47V435h2.37c1.32,0,2.19.62,2.19,1.89S1051.44,438.79,1050.23,438.79Z" transform="translate(-115 -380.72)"/><path class="cls-1" d="M1050.16,448.39a9.84,9.84,0,1,1,9.84-9.83A9.84,9.84,0,0,1,1050.16,448.39Zm0-17.92a8.09,8.09,0,1,0,8.09,8.09A8.1,8.1,0,0,0,1050.16,430.47Z" transform="translate(-115 -380.72)"/><path class="cls-1" d="M347,568.45h3.1v39.39h23.11v2.88H347Z" transform="translate(-115 -380.72)"/><path class="cls-1" d="M387.67,590.78v17.06h25.65v2.88H384.57V568.45h28.75v2.88H387.67v16.56h22.26v2.89Z" transform="translate(-115 -380.72)"/><path class="cls-1" d="M456.37,610.72l-4.58-11.06H429.1l-4.58,11.06h-3.24L439,568.45h3l17.68,42.27Zm-5.78-14-10.14-24.52L430.3,596.77Z" transform="translate(-115 -380.72)"/><path class="cls-1" d="M502.32,582.33c0,7.11-4.23,11.69-10.5,13.17v.15L503,609.88v.84h-3.17L488.22,596h-14.3v14.72h-3.1V568.45h15.64C496.47,568.45,502.32,573.52,502.32,582.33Zm-15.86-11H473.92v21.78h13.32c6.83,0,11.91-3.67,11.91-10.71C499.15,575.14,494.14,571.33,486.46,571.33Z" transform="translate(-115 -380.72)"/><path class="cls-1" d="M547.56,610.72l-28.47-37.2v37.2H516V568.45h2.75l28.46,37.13V568.45h3.11v42.27Z" transform="translate(-115 -380.72)"/><path class="cls-1" d="M566.3,610.72V568.45h3.1v42.27Z" transform="translate(-115 -380.72)"/><path class="cls-1" d="M617,610.72l-28.47-37.2v37.2h-3.1V568.45h2.75l28.46,37.13V568.45h3.11v42.27Z" transform="translate(-115 -380.72)"/><path class="cls-1" d="M672,588.18v2.46c0,13-7,21.07-18.46,21.07-12.61,0-20.72-9.58-20.72-22,0-12.62,8.25-22.2,20.86-22.2,10.08,0,14.87,5.64,14.87,5.64l-1.83,2.32s-4.51-5-13-5c-11.2,0-17.69,8.81-17.69,19.24,0,10.21,6.42,19,17.55,19,9.09,0,15.22-6.27,15.36-16.56v-1.13H652.34v-2.88Z" transform="translate(-115 -380.72)"/><path class="cls-1" d="M704.49,610.72V568.45h3.1v42.27Z" transform="translate(-115 -380.72)"/><path class="cls-1" d="M755.22,610.72l-28.47-37.2v37.2h-3.1V568.45h2.75l28.47,37.13V568.45H758v42.27Z" transform="translate(-115 -380.72)"/><path class="cls-1" d="M785.17,608.75c8.32,0,12-3.45,12-8.59,0-5.36-4.44-7.47-12-9.73-8.31-2.54-14.09-5-14.09-11.84s5.85-11.06,14.51-11.06c9.66,0,13.6,4,13.6,4l-1.69,2.6s-3.87-3.59-11.91-3.59c-6.2,0-11.34,2.75-11.34,8,0,4.86,4.51,6.7,11.91,9C795,590,800.32,593,800.32,600.16c0,6.55-4.79,11.48-15.15,11.48-9.51,0-14.23-4.72-14.23-4.72l1.76-2.4S777.07,608.75,785.17,608.75Z" transform="translate(-115 -380.72)"/><path class="cls-1" d="M840.84,568.45v2.88H826.18v39.39h-3.1V571.33H808.5v-2.88Z" transform="translate(-115 -380.72)"/><path class="cls-1" d="M852.33,610.72V568.45h3.1v42.27Z" transform="translate(-115 -380.72)"/><path class="cls-1" d="M899.26,568.45v2.88H884.6v39.39h-3.1V571.33H866.91v-2.88Z" transform="translate(-115 -380.72)"/><path class="cls-1" d="M910.11,593.25v-24.8h3.1v24.8c0,9.23,4.51,15.5,13.32,15.5s13.32-6.27,13.32-15.5v-24.8H943v24.8c0,11.06-5.85,18.39-16.42,18.39S910.11,604.31,910.11,593.25Z" transform="translate(-115 -380.72)"/><path class="cls-1" d="M986.21,568.45v2.88H971.56v39.39h-3.1V571.33H953.87v-2.88Z" transform="translate(-115 -380.72)"/><path class="cls-1" d="M1000.8,590.78v17.06h25.65v2.88H997.7V568.45h28.75v2.88H1000.8v16.56h22.27v2.89Z" transform="translate(-115 -380.72)"/></svg>